# xmcd
# 
# Track frame offsets:
#     183
#     18485
#     31358
#     54095
#     70418
#     89988
#     110193
#     129883
#     149875
#     165953
#     182585
#     203820
#     220685
#     237335
#     248873
#     264913
#     282995
#     294928
# 
# Disc length: 4135
# 
# Revision: 1
# Processed by: cddbd v1.5.2PL0 Copyright (c) Steve Scherf et al.
# Submitted via: BonkEnc v1.0
# 
DISCID=0e102512
DTITLE=Cesar Passarinho - 18 Sucessos de Cesar Passarinho
DYEAR=0
DGENRE=Country
TTITLE0=Guri
TTITLE1=Cambichos
TTITLE2=Os Cardeais
TTITLE3=Volteada
TTITLE4=Fim De Mês
TTITLE5=Negro De 35
TTITLE6=Faz De Conta
TTITLE7=Noites De Inverno, Sonhos De Primavera
TTITLE8=Não Há Pandorgas No Céu
TTITLE9=Assim No Más
TTITLE10=Manhãs De Verão
TTITLE11=Sonho De Seresteiro
TTITLE12=Que Homens São Esses
TTITLE13=Clarão Rural
TTITLE14=Noites De Milongas
TTITLE15=Estrelas De Peão
TTITLE16=Moirão A Moirão
TTITLE17=Lado A Lado
EXTD=
EXTT0=
EXTT1=
EXTT2=
EXTT3=
EXTT4=
EXTT5=
EXTT6=
EXTT7=
EXTT8=
EXTT9=
EXTT10=
EXTT11=
EXTT12=
EXTT13=
EXTT14=
EXTT15=
EXTT16=
EXTT17=
PLAYORDER=
